<svg xmlns="http://www.w3.org/2000/svg" viewBox="0 0 64 64" role="img" aria-label="Bilibili">
  <rect width="64" height="64" rx="18" fill="#fb7299"/>
  <path fill="#fff" d="M19.6 19.2 15.5 15l2.9-2.8 5.1 5.2h17l5.1-5.2 2.9 2.8-4.1 4.2h2.2A7.4 7.4 0 0 1 54 26.6v16.2a7.4 7.4 0 0 1-7.4 7.4H17.4a7.4 7.4 0 0 1-7.4-7.4V26.6a7.4 7.4 0 0 1 7.4-7.4h2.2Zm-2.2 5.2a2.2 2.2 0 0 0-2.2 2.2v16.2a2.2 2.2 0 0 0 2.2 2.2h29.2a2.2 2.2 0 0 0 2.2-2.2V26.6a2.2 2.2 0 0 0-2.2-2.2H17.4Z"/>
  <path fill="#fff" d="M24.2 31h4.2v8.6h-4.2V31Zm11.4 0h4.2v8.6h-4.2V31Z"/>
</svg>
