<svg xmlns="http://www.w3.org/2000/svg" viewBox="0 0 64 64" role="img" aria-label="Douyin">
  <rect width="64" height="64" rx="18" fill="#080808"/>
  <path fill="#00f5ff" d="M37.3 12.5c1 6.2 4.6 10 10.4 10.6v6.6c-3.3.2-6.8-1.1-10.2-3v11.8c0 8.9-5.6 14-13.2 14-7.1 0-12.5-5-12.5-11.8 0-7.4 6.3-12.5 14.9-11.8v6.8c-4.7-.5-7.6 1.7-7.6 4.8 0 2.8 2.3 4.8 5.2 4.8 3.5 0 5.8-2.1 5.8-6.6V12.5h7.2Z"/>
  <path fill="#ff2d55" d="M40.2 12.5c.9 5.1 3.8 8.2 8.8 9.1v6.5c-3.3.2-6.8-1.1-10.2-3V37c0 8.9-5.6 14-13.2 14-5.8 0-10.6-3.3-12-8.2 1.6 2.1 4.3 3.4 7.3 3.4 3.5 0 5.8-2.1 5.8-6.6V12.5h13.5Z"/>
  <path fill="#fff" d="M37.3 12.5c1 6.2 4.6 10 10.4 10.6v4.8c-3.3.2-6.8-1.1-10.2-3v11.8c0 8.9-5.6 14-13.2 14-7.1 0-12.5-5-12.5-11.8 0-7.4 6.3-12.5 14.9-11.8v5.2c-4.7-.5-7.6 1.7-7.6 4.8 0 2.8 2.3 4.8 5.2 4.8 3.5 0 5.8-2.1 5.8-6.6V12.5h7.2Z"/>
</svg>
