<svg xmlns="http://www.w3.org/2000/svg" viewBox="0 0 64 64" role="img" aria-label="GitHub">
  <rect width="64" height="64" rx="18" fill="#111318"/>
  <path fill="#fff" d="M32 12.8c-10.8 0-19.6 8.8-19.6 19.6 0 8.7 5.6 16 13.4 18.6 1 .2 1.3-.4 1.3-.9v-3.4c-5.4 1.2-6.6-2.3-6.6-2.3-.9-2.2-2.1-2.8-2.1-2.8-1.8-1.2.1-1.2.1-1.2 2 .1 3 2 3 2 1.7 3 4.6 2.1 5.7 1.6.2-1.3.7-2.1 1.2-2.6-4.3-.5-8.9-2.2-8.9-9.6 0-2.1.8-3.9 2-5.2-.2-.5-.9-2.5.2-5.1 0 0 1.7-.5 5.4 2a18.8 18.8 0 0 1 9.8 0c3.7-2.5 5.4-2 5.4-2 1.1 2.6.4 4.6.2 5.1a7.5 7.5 0 0 1 2 5.2c0 7.5-4.6 9.1-8.9 9.6.7.6 1.3 1.8 1.3 3.6v5.3c0 .5.3 1.1 1.3.9a19.6 19.6 0 0 0 13.4-18.6c0-10.8-8.8-19.6-19.6-19.6Z"/>
</svg>
