<svg xmlns="http://www.w3.org/2000/svg" viewBox="0 0 64 64" role="img" aria-label="Kuaishou">
  <rect width="64" height="64" rx="18" fill="#ff7a00"/>
  <path fill="#fff" d="M21.1 16.2a7.1 7.1 0 1 1 0 14.2 7.1 7.1 0 0 1 0-14.2Zm21.8 0a7.1 7.1 0 1 1 0 14.2 7.1 7.1 0 0 1 0-14.2ZM18.2 33h27.6a7.2 7.2 0 0 1 7.2 7.2v1.6A7.2 7.2 0 0 1 45.8 49H18.2a7.2 7.2 0 0 1-7.2-7.2v-1.6a7.2 7.2 0 0 1 7.2-7.2Z"/>
  <circle cx="21.1" cy="23.3" r="2.8" fill="#ff7a00"/>
  <circle cx="42.9" cy="23.3" r="2.8" fill="#ff7a00"/>
  <path fill="#ff7a00" d="M24.6 39.2 36 32.6v13.2l-11.4-6.6Z"/>
</svg>
