<svg xmlns="http://www.w3.org/2000/svg" viewBox="0 0 64 64" role="img" aria-label="TikTok">
  <rect width="64" height="64" rx="18" fill="#050505"/>
  <path fill="#25f4ee" d="M37.2 14.2c.9 6.5 4.5 10.5 10.4 10.9v6.8c-3.4.3-6.4-.8-10.2-3v12c0 15.3-16.7 20-23.4 9.1-4.3-7 .1-19.3 12.1-19.8v7.2c-1.1.2-2.3.5-3.4 1-3.3 1.5-5.2 4.4-4.7 7.6 1 6 12 7.8 11.1-4V14.2h8.1Z"/>
  <path fill="#fe2c55" d="M39.4 14.2c1.1 5.7 4.5 9 10.1 9.4v6.8c-3.4.3-6.4-.8-10.2-3v12c0 15.3-16.7 20-23.4 9.1-2.4-3.9-2.2-9.4.3-13.3 1.9-3 5.5-5.1 10.2-5.3v7.2c-1.1.2-2.3.5-3.4 1-3.3 1.5-5.2 4.4-4.7 7.6 1 6 12 7.8 11.1-4V14.2h10Z"/>
  <path fill="#fff" d="M37.4 14.2c1 6.3 4.6 10.2 10.2 10.6v5c-3.4.3-6.7-.9-10.2-3v12.1c0 15.3-16.7 20-23.4 9.1-4.3-7 .1-19.3 12.1-19.8v5.4c-1.2.2-2.4.5-3.5 1-3.3 1.5-5.2 4.4-4.7 7.6 1 6 12 7.8 11.1-4v-24h8.4Z"/>
</svg>
