<?xml version="1.0" encoding="UTF-8"?>
<svg id="icon" xmlns="http://www.w3.org/2000/svg" viewBox="0 0 180 180">
  <defs>
    <style>
      .cls-1 {
        fill: #919191;
      }
    </style>
  </defs>
  <path id="kiro" class="cls-1" d="M91.83,54.43c-25.06.47-22.29,25.13-26.72,40.99-2.35,8.42-11.77,18.21,6.65,14.29.77.98-5.29,9.86,1.66,14.19,8.23,5.13,17.16-3.24,18.36-2.95.92.22,1.24,2.34,1.86,2.75,7.06,4.7,14.06-1.66,18.05-7.52,13.29-19.48,10.93-62.34-19.87-61.76ZM92.83,86.01c-4.13-1.61-3.71-11.35.12-12.03,4.34-.76,6.25,11.43-.12,12.03ZM105.17,85.99c-3.64-2.55-4.09-7.04-2.29-10.76l3.18-1.1c3.94.75,4.29,11.5-.9,11.87Z"/>
</svg>