<?xml version="1.0" encoding="UTF-8"?>
<svg id="icon" xmlns="http://www.w3.org/2000/svg" viewBox="0 0 180 180">
  <defs>
    <style>
      .cls-1 {
        fill: #919191;
      }
    </style>
  </defs>
  <path id="roocode" class="cls-1" d="M118,63.48c1.12-.86,12.67,18.49,12.97,20.86-4.68,1.4-7.29-3.46-11.23-2.82-5.4.87-22.09,11.44-21.52,18.07l9.77,18.54c-1.66-.23-4.47.57-5.8-.2-.98-.56-12.39-17.54-12.74-18.62-1.39-4.26,1.45-8.26-.39-11.27-.24-.4-6.52-4.97-7.12-5.2-3.69-1.4-10.16,4.74-14.48,5.42-5.93.92-12.53-.57-18.43-.94v-2.97s15.92-2.57,15.92-2.57l25.72-20.05,24.87,7.47,2.46-5.73Z"/>
</svg>